<svg width="38" height="42" viewBox="0 0 38 42" fill="none" xmlns="http://www.w3.org/2000/svg">
<path d="M19.7195 41.25V36.2775L31.7188 24.3368C31.9408 24.1418 32.1695 23.9993 32.405 23.9093C32.6405 23.8193 32.8768 23.7728 33.1138 23.7698C33.3718 23.7698 33.6253 23.8177 33.8743 23.9137C34.1218 24.0112 34.3475 24.1567 34.5515 24.3503L36.6328 26.4742C36.8173 26.6962 36.9583 26.9272 37.0558 27.1672C37.1518 27.4058 37.1998 27.645 37.1998 27.885C37.1998 28.125 37.154 28.3665 37.0625 28.6095C36.971 28.8525 36.8285 29.085 36.635 29.307L24.6898 41.25H19.7195ZM21.7108 39.261H23.8483L31.649 31.4445L30.6365 30.333L29.5678 29.2755L21.7085 37.1235L21.7108 39.261ZM3.8818 41.25C2.8453 41.25 1.98055 40.9035 1.28755 40.2105C0.594547 39.5175 0.248047 38.6527 0.248047 37.6162V4.38375C0.248047 3.34875 0.595296 2.48475 1.2898 1.79175C1.9843 1.09875 2.84905 0.7515 3.88405 0.75H21.623L31.748 10.875V16.716H29.498V12H20.498V3H3.88405C3.53755 3 3.21955 3.144 2.93005 3.432C2.64055 3.72 2.49655 4.03725 2.49805 4.38375V37.6162C2.49805 37.9613 2.64205 38.2785 2.93005 38.568C3.21805 38.8575 3.5353 39.0015 3.8818 39H14.3533V41.25H3.8818ZM30.6343 30.333L29.5678 29.2755L31.649 31.4445L30.6343 30.333Z" fill="black"/>
</svg>
