<svg width="40" height="41" viewBox="0 0 40 41" fill="none" xmlns="http://www.w3.org/2000/svg">
<path fill-rule="evenodd" clip-rule="evenodd" d="M20 0.5C31.0453 0.5 40.0003 9.45431 40.0003 20.5C40.0003 31.5457 31.0453 40.5 20 40.5C8.9543 40.5 0 31.5457 0 20.5C0 9.45431 8.9543 0.5 20 0.5ZM19.2771 1.99659C16.9954 2.31769 14.8228 4.15108 13.1363 7.2174C12.6471 8.10683 12.2057 9.08946 11.8211 10.1504C14.1143 9.57417 16.6334 9.23442 19.2771 9.18187V1.99659ZM10.1307 10.6308C10.6091 9.12958 11.1942 7.7484 11.8695 6.52065C12.7055 5.00059 13.6977 3.68795 14.8156 2.67977C8.7367 4.44523 3.9452 9.23679 2.1797 15.3157C3.1879 14.1978 4.5005 13.2056 6.0206 12.3696C7.2484 11.6943 8.6295 11.1091 10.1307 10.6308ZM9.6504 12.3211C9.0741 14.6143 8.7344 17.1334 8.6818 19.7771H1.4965C1.8176 17.4954 3.651 15.3228 6.7174 13.6364C7.6068 13.1472 8.5894 12.7058 9.6504 12.3211ZM10.1279 19.7771C10.1876 16.892 10.603 14.1834 11.2902 11.7902C13.6834 11.103 16.392 10.6876 19.2771 10.6279V13.7508C18.2008 16.5062 16.0056 18.7012 13.2501 19.7771H10.1279ZM8.6818 21.2229H1.4965C1.8176 23.5046 3.651 25.6771 6.7174 27.3636C7.6068 27.8528 8.5894 28.2942 9.6504 28.6789C9.0741 26.3857 8.7344 23.8666 8.6818 21.2229ZM11.2902 29.2098C10.603 26.8166 10.1876 24.108 10.1279 21.2229H13.2501C16.0056 22.2988 18.2008 24.4938 19.2771 27.2492V30.3721C16.392 30.3124 13.6834 29.897 11.2902 29.2098ZM10.1307 30.3692C8.6295 29.8909 7.2484 29.3057 6.0206 28.6304C4.5005 27.7944 3.1879 26.8022 2.1797 25.6843C3.9452 31.7632 8.7367 36.5548 14.8156 38.3202C13.6977 37.312 12.7055 35.9994 11.8695 34.4793C11.1942 33.2516 10.6091 31.8704 10.1307 30.3692ZM19.2771 39.0034C16.9954 38.6823 14.8228 36.8489 13.1363 33.7826C12.6471 32.8932 12.2057 31.9105 11.8211 30.8496C14.1143 31.4258 16.6334 31.7656 19.2771 31.8181V39.0034ZM25.1843 38.3202C26.3022 37.312 27.2943 35.9994 28.1303 34.4793C28.8053 33.2516 29.3913 31.8704 29.8693 30.3692C31.3703 29.8909 32.7513 29.3057 33.9793 28.6304C35.4993 27.7944 36.8123 26.8022 37.8203 25.6843C36.0543 31.7632 31.2633 36.5548 25.1843 38.3202ZM28.1793 30.8496C27.7943 31.9105 27.3523 32.8932 26.8633 33.7826C25.1771 36.8489 23.0045 38.6823 20.7228 39.0034V31.8181C23.3665 31.7656 25.8856 31.4258 28.1793 30.8496ZM30.3493 28.6789C31.4103 28.2942 32.3933 27.8528 33.2823 27.3636C36.3493 25.6772 38.1823 23.5046 38.5033 21.2229H31.3183C31.2653 23.8666 30.9253 26.3857 30.3493 28.6789ZM29.8723 21.2229C29.8123 24.108 29.3973 26.8166 28.7093 29.2098C26.3165 29.897 23.6079 30.3124 20.7228 30.3721V27.2515C21.7988 24.4951 23.9945 22.2991 26.7507 21.2229H29.8723ZM31.3183 19.7771H38.5033C38.1823 17.4954 36.3493 15.3228 33.2823 13.6364C32.3933 13.1472 31.4103 12.7058 30.3493 12.3211C30.9253 14.6143 31.2653 17.1334 31.3183 19.7771ZM28.7093 11.7902C29.3973 14.1834 29.8123 16.892 29.8723 19.7771H26.7508C23.9945 18.7009 21.7988 16.5049 20.7228 13.7485V10.6279C23.6079 10.6876 26.3165 11.103 28.7093 11.7902ZM29.8693 10.6308C31.3703 11.1091 32.7513 11.6943 33.9793 12.3696C35.4993 13.2056 36.8123 14.1978 37.8203 15.3157C36.0543 9.23679 31.2633 4.44523 25.1843 2.67977C26.3022 3.68795 27.2943 5.00059 28.1303 6.52065C28.8053 7.7484 29.3913 9.12958 29.8693 10.6308ZM20.7228 1.99659C23.0045 2.31769 25.1771 4.15108 26.8633 7.2174C27.3523 8.10684 27.7943 9.08946 28.1793 10.1504C25.8856 9.57417 23.3665 9.23442 20.7228 9.18187V1.99659Z" fill="black"/>
</svg>
