<svg width="60" height="44" viewBox="0 0 60 44" fill="none" xmlns="http://www.w3.org/2000/svg">
<path d="M58.6016 25.0119C58.3663 25.1513 58.0854 25.1916 57.8204 25.124C57.5555 25.0563 57.3283 24.8861 57.1888 24.6509C55.0412 21.0416 51.7927 18.9791 48.2788 18.9791C48.1736 18.9778 48.0693 18.9604 47.9694 18.9275C47.6439 18.9615 47.3169 18.9787 46.9897 18.9791C46.7162 18.9791 46.4539 18.8704 46.2605 18.677C46.0671 18.4836 45.9584 18.2213 45.9584 17.9478C45.9584 17.6743 46.0671 17.412 46.2605 17.2186C46.4539 17.0252 46.7162 16.9166 46.9897 16.9166C48.3397 16.9161 49.6626 16.5371 50.8081 15.8226C51.9535 15.108 52.8756 14.0866 53.4697 12.8742C54.0637 11.6619 54.3059 10.3073 54.1687 8.96423C54.0315 7.62117 53.5205 6.34349 52.6935 5.27632C51.8666 4.20915 50.757 3.39524 49.4908 2.92705C48.2245 2.45886 46.8523 2.35514 45.5301 2.62768C44.2078 2.90022 42.9885 3.53809 42.0106 4.46885C41.0326 5.39961 40.3353 6.58594 39.9978 7.89312C39.9294 8.15808 39.7586 8.38502 39.5229 8.52403C39.2872 8.66303 39.0059 8.70271 38.741 8.63434C38.476 8.56596 38.2491 8.39513 38.1101 8.15943C37.9711 7.92372 37.9314 7.64246 37.9998 7.3775C38.3782 5.91003 39.1103 4.55756 40.1319 3.43824C41.1536 2.31892 42.4338 1.4668 43.8607 0.956341C45.2877 0.445878 46.8179 0.292597 48.3177 0.509887C49.8175 0.727177 51.2413 1.30843 52.4647 2.20286C53.6881 3.09729 54.6739 4.2777 55.3359 5.64094C55.9979 7.00419 56.316 8.5088 56.2624 10.0233C56.2088 11.5379 55.7852 13.0163 55.0285 14.3293C54.2719 15.6424 53.2052 16.7502 51.9216 17.5559C54.7086 18.5485 57.2094 20.6497 58.9625 23.6094C59.0987 23.8437 59.1372 24.1222 59.0696 24.3846C59.0021 24.6471 58.834 24.8724 58.6016 25.0119ZM45.8295 42.1719C45.966 42.4085 46.0031 42.6897 45.9325 42.9536C45.8619 43.2175 45.6895 43.4426 45.4531 43.5795C45.2968 43.6712 45.1187 43.7193 44.9375 43.7188C44.7567 43.7186 44.579 43.6708 44.4225 43.5803C44.2659 43.4898 44.1359 43.3597 44.0455 43.2031C42.6555 40.8469 40.675 38.8939 38.2995 37.5372C35.924 36.1805 33.2357 35.4669 30.5 35.4669C27.7643 35.4669 25.076 36.1805 22.7005 37.5372C20.325 38.8939 18.3445 40.8469 16.9545 43.2031C16.8118 43.4276 16.5879 43.5882 16.3296 43.6515C16.0712 43.7148 15.7984 43.6758 15.5682 43.5427C15.3379 43.4096 15.1679 43.1927 15.0938 42.9372C15.0197 42.6818 15.0472 42.4076 15.1705 42.1719C17.4089 38.3281 21.0183 35.4731 25.2741 34.1797C23.0191 33.0092 21.2223 31.1156 20.1716 28.8023C19.121 26.489 18.8773 23.89 19.4797 21.4217C20.0821 18.9535 21.4957 16.7589 23.4939 15.1897C25.4921 13.6206 27.9593 12.7676 30.5 12.7676C33.0407 12.7676 35.5079 13.6206 37.5061 15.1897C39.5043 16.7589 40.9179 18.9535 41.5203 21.4217C42.1227 23.89 41.879 26.489 40.8284 28.8023C39.7777 31.1156 37.9809 33.0092 35.7259 34.1797C39.9818 35.4731 43.5911 38.3281 45.8295 42.1719ZM30.5 33.4062C32.3357 33.4062 34.1301 32.8619 35.6564 31.8421C37.1827 30.8222 38.3723 29.3727 39.0748 27.6768C39.7772 25.9809 39.961 24.1147 39.6029 22.3143C39.2448 20.5139 38.3608 18.8602 37.0628 17.5622C35.7648 16.2642 34.1111 15.3802 32.3107 15.0221C30.5103 14.664 28.6441 14.8478 26.9482 15.5502C25.2523 16.2527 23.8028 17.4423 22.7829 18.9686C21.7631 20.4949 21.2188 22.2893 21.2188 24.125C21.2188 26.5865 22.1966 28.9473 23.9372 30.6878C25.6777 32.4284 28.0385 33.4062 30.5 33.4062ZM14 16.9062C12.65 16.9058 11.3271 16.5268 10.1816 15.8122C9.03619 15.0977 8.11407 14.0762 7.52002 12.8639C6.92596 11.6516 6.68378 10.297 6.82098 8.95391C6.95817 7.61085 7.46924 6.33318 8.29615 5.26601C9.12306 4.19883 10.2327 3.38493 11.4989 2.91674C12.7652 2.44855 14.1374 2.34483 15.4596 2.61737C16.7819 2.88991 18.0012 3.52778 18.9791 4.45854C19.9571 5.38929 20.6544 6.57563 20.9919 7.88281C21.0603 8.14777 21.2311 8.37471 21.4668 8.51372C21.7025 8.65272 21.9838 8.6924 22.2487 8.62402C22.5137 8.55565 22.7406 8.38482 22.8796 8.14911C23.0186 7.91341 23.0583 7.63214 22.9899 7.36719C22.6099 5.89451 21.8738 4.53778 20.8463 3.41637C19.8189 2.29496 18.5316 1.44323 17.0977 0.936105C15.6638 0.428981 14.1273 0.282007 12.6233 0.508112C11.1193 0.734217 9.69386 1.32647 8.47246 2.23278C7.25106 3.13908 6.2711 4.33165 5.61879 5.70559C4.96648 7.07952 4.66181 8.59271 4.73159 10.112C4.80137 11.6314 5.24345 13.1102 6.01894 14.4186C6.79444 15.727 7.87958 16.8247 9.17891 17.6152C5.82814 18.633 2.89162 20.6976 0.800004 23.5063C0.635902 23.7251 0.565439 24.0001 0.604119 24.2708C0.642798 24.5416 0.787451 24.7859 1.00625 24.95C1.22506 25.1141 1.50009 25.1846 1.77084 25.1459C2.0416 25.1072 2.2859 24.9626 2.45 24.7438C3.78849 22.9439 5.53101 21.4837 7.53718 20.4806C9.54334 19.4775 11.7571 18.9597 14 18.9688C14.2735 18.9688 14.5358 18.8601 14.7292 18.6667C14.9226 18.4733 15.0313 18.211 15.0313 17.9375C15.0313 17.664 14.9226 17.4017 14.7292 17.2083C14.5358 17.0149 14.2735 16.9062 14 16.9062Z" fill="black"/>
</svg>
