<svg width="50" height="52" viewBox="0 0 50 52" fill="none" xmlns="http://www.w3.org/2000/svg">
<path d="M31.875 50.75V37C31.875 36.2707 31.5853 35.5712 31.0695 35.0555C30.5538 34.5397 29.8543 34.25 29.125 34.25H20.875C20.1457 34.25 19.4462 34.5397 18.9305 35.0555C18.4147 35.5712 18.125 36.2707 18.125 37V50.75" stroke="black" stroke-width="1.8" stroke-linecap="round" stroke-linejoin="round"/>
<path d="M5.75071 23.25V39.75C5.75071 44.9365 5.75071 47.527 7.36221 49.1385C8.97371 50.75 11.5642 50.75 16.7507 50.75H33.2507C38.4372 50.75 41.0277 50.75 42.6392 49.1385C44.2507 47.527 44.2507 44.9365 44.2507 39.75V23.25M4.70846 5.41625C5.20896 3.41425 5.45921 2.416 6.20446 1.833C6.95246 1.25 7.98371 1.25 10.0462 1.25H39.9552C42.0177 1.25 43.049 1.25 43.797 1.833C44.5395 2.416 44.7925 3.41425 45.293 5.41625L48.6012 18.6548C48.868 19.7218 49.0027 20.2525 48.9725 20.687C48.9348 21.235 48.734 21.7591 48.3958 22.1919C48.0576 22.6247 47.5976 22.9463 47.075 23.1152C46.6625 23.25 46.1015 23.25 44.9767 23.25C43.511 23.25 42.7767 23.25 42.1635 23.107C41.3132 22.9089 40.5224 22.5114 39.8562 21.9471C39.1901 21.3828 38.6679 20.6681 38.3327 19.862C38.088 19.279 37.9697 18.5695 37.736 17.1587C37.67 16.7627 37.637 16.5648 37.5985 16.5125C37.573 16.4773 37.5395 16.4486 37.5008 16.4288C37.462 16.4091 37.4192 16.3988 37.3757 16.3988C37.3322 16.3988 37.2894 16.4091 37.2507 16.4288C37.2119 16.4486 37.1785 16.4773 37.153 16.5125C37.1145 16.5648 37.0815 16.76 37.0155 17.1587L36.7927 18.5035L36.7432 18.7785C36.5082 20.0148 35.8564 21.1331 34.8965 21.9468C33.9367 22.7606 32.7268 23.2205 31.4687 23.25H30.9077C29.601 23.2205 28.3476 22.7265 27.372 21.8568C26.3964 20.987 25.7624 19.7982 25.5837 18.5035L25.361 17.156C25.295 16.7628 25.262 16.5648 25.2235 16.5125C25.198 16.4773 25.1645 16.4486 25.1258 16.4288C25.087 16.4091 25.0442 16.3988 25.0007 16.3988C24.9572 16.3988 24.9144 16.4091 24.8757 16.4288C24.8369 16.4486 24.8035 16.4773 24.778 16.5125C24.7395 16.5648 24.7065 16.76 24.6405 17.1587L24.4177 18.5035L24.3682 18.7785C24.1332 20.0148 23.4814 21.1331 22.5215 21.9468C21.5617 22.7606 20.3518 23.2205 19.0937 23.25H18.5327C17.2747 23.2205 16.0648 22.7606 15.1049 21.9468C14.145 21.1331 13.4932 20.0148 13.2582 18.7785L13.2087 18.5035L12.986 17.156C12.92 16.7628 12.887 16.5648 12.8485 16.5125C12.823 16.4773 12.7895 16.4486 12.7508 16.4288C12.712 16.4091 12.6692 16.3988 12.6257 16.3988C12.5822 16.3988 12.5394 16.4091 12.5007 16.4288C12.4619 16.4486 12.4285 16.4773 12.403 16.5125C12.3645 16.5648 12.3315 16.76 12.2655 17.1587C12.0317 18.5722 11.9135 19.2762 11.6687 19.862C11.3338 20.6678 10.812 21.3823 10.1464 21.9465C9.48076 22.5108 8.69044 22.9086 7.84071 23.107C7.22471 23.25 6.49321 23.25 5.02471 23.25C3.89996 23.25 3.33896 23.25 2.92646 23.1152C2.40385 22.9463 1.94381 22.6247 1.60562 22.1919C1.26743 21.7591 1.06659 21.235 1.02896 20.687C1.00146 20.2525 1.13346 19.7218 1.40021 18.6548L4.70846 5.41625Z" stroke="black" stroke-width="1.8"/>
</svg>
